# xmcd
#
# Track frame offsets: 
#        150
#        18338
#        35113
#        52613
#        68075
#        82313
#        96575
#        111038
#        125750
#        138413
#        155038
#        167938
#
# Disc length: 2421 seconds
#
# Revision: 0
# Processed by: cddbd v1.5.1PL2 Copyright (c) Steve Scherf et al.
# Submitted via: ExactAudioCopy v0.95b4
#
DISCID=ab09730c
DTITLE=Lee Greenwood - All-Time Favorites! - Volume One
DYEAR=1994
DGENRE=Country
TTITLE0=Didn't We
TTITLE1=I Still Believe
TTITLE2=You Can't Fall In Love When You're Cryin'
TTITLE3=Ain't No Trick (It Takes Magic)
TTITLE4=I.O.U.
TTITLE5=She's Lying
TTITLE6=God Bless The U.S.A.
TTITLE7=To Me
TTITLE8=Even Love Can't Save Us Now
TTITLE9=Two Heart Serenade
TTITLE10=You've Got A Good Love Comin'
TTITLE11=I Don't Wnat To Be A Memory
EXTD=
EXTT0=
EXTT1=
EXTT2=
EXTT3=
EXTT4=
EXTT5=
EXTT6=
EXTT7=
EXTT8=
EXTT9=
EXTT10=
EXTT11=
PLAYORDER=
